<svg xmlns="http://www.w3.org/2000/svg" viewBox="0 0 512 512">
  <defs>
    <linearGradient id="bgGrad" x1="0%" y1="0%" x2="100%" y2="100%">
      <stop offset="0%" style="stop-color:#111922"/>
      <stop offset="100%" style="stop-color:#0a0e14"/>
    </linearGradient>
    <linearGradient id="accentGrad" x1="0%" y1="0%" x2="100%" y2="100%">
      <stop offset="0%" style="stop-color:#00d4ff"/>
      <stop offset="100%" style="stop-color:#0099cc"/>
    </linearGradient>
    <linearGradient id="glowGrad" x1="0%" y1="0%" x2="100%" y2="100%">
      <stop offset="0%" style="stop-color:#00d4ff;stop-opacity:0.3"/>
      <stop offset="100%" style="stop-color:#0099cc;stop-opacity:0.1"/>
    </linearGradient>
    <filter id="glow" x="-50%" y="-50%" width="200%" height="200%">
      <feGaussianBlur stdDeviation="8" result="blur"/>
      <feMerge>
        <feMergeNode in="blur"/>
        <feMergeNode in="SourceGraphic"/>
      </feMerge>
    </filter>
  </defs>

  <!-- Background rounded square -->
  <rect x="16" y="16" width="480" height="480" rx="96" ry="96" fill="url(#bgGrad)"/>

  <!-- Subtle border -->
  <rect x="16" y="16" width="480" height="480" rx="96" ry="96" fill="none" stroke="url(#accentGrad)" stroke-width="2" opacity="0.3"/>

  <!-- Stylized "AI" letterform -->
  <g filter="url(#glow)">
    <!-- A letter - bold geometric style -->
    <path d="M120 380 L200 132 C205 118 215 110 230 110 L238 110 C253 110 263 118 268 132 L348 380 L290 380 L270 320 L198 320 L178 380 Z M214 270 L254 270 L234 200 Z" fill="url(#accentGrad)"/>

    <!-- I letter with decorative elements -->
    <rect x="368" y="110" width="24" height="270" rx="4" fill="url(#accentGrad)"/>

    <!-- Top bar of I -->
    <rect x="340" y="110" width="80" height="24" rx="4" fill="url(#accentGrad)"/>

    <!-- Bottom bar of I -->
    <rect x="340" y="356" width="80" height="24" rx="4" fill="url(#accentGrad)"/>

    <!-- Decorative dot/node (represents tech/automation) -->
    <circle cx="380" cy="60" r="16" fill="url(#accentGrad)" opacity="0.8"/>
  </g>

  <!-- Subtle circuit line decorations -->
  <g stroke="url(#accentGrad)" stroke-width="2" opacity="0.2" fill="none">
    <line x1="80" y1="450" x2="140" y2="450"/>
    <circle cx="140" cy="450" r="4" fill="url(#accentGrad)"/>
    <line x1="432" y1="450" x2="372" y2="450"/>
    <circle cx="372" cy="450" r="4" fill="url(#accentGrad)"/>
  </g>
</svg>
