<svg xmlns="http://www.w3.org/2000/svg" viewBox="0 0 512 512" role="img" aria-label="Awesome Intune">
  <defs>
    <linearGradient id="tile" x1="72" y1="52" x2="448" y2="468" gradientUnits="userSpaceOnUse">
      <stop stop-color="#005a9e"/>
      <stop offset="0.58" stop-color="#0078d4"/>
      <stop offset="1" stop-color="#19a7df"/>
    </linearGradient>
    <linearGradient id="middle-layer" x1="140" y1="222" x2="368" y2="358" gradientUnits="userSpaceOnUse">
      <stop stop-color="#bceeff"/>
      <stop offset="1" stop-color="#63d2fa"/>
    </linearGradient>
  </defs>

  <rect width="512" height="512" rx="112" fill="url(#tile)"/>
  <path d="M22 134C22 72.1 72.1 22 134 22h244c61.9 0 112 50.1 112 112" fill="none" stroke="#fff" stroke-width="12" stroke-linecap="round" opacity=".16"/>

  <path d="m102 304 154 86 154-86v46l-154 86-154-86z" fill="#fff" opacity=".7"/>
  <path d="m102 228 154 86 154-86v46l-154 86-154-86z" fill="url(#middle-layer)"/>
  <path fill="#fff" fill-rule="evenodd" d="m256 76 154 88-154 88-154-88zm0 52-66 36 66 36 66-36z"/>
</svg>
