<svg xmlns="http://www.w3.org/2000/svg" xmlns:xlink="http://www.w3.org/1999/xlink" width="440" zoomAndPan="magnify" viewBox="0 0 330 149.999998" height="200" preserveAspectRatio="xMidYMid meet" version="1.0"><defs><g/><clipPath id="c0174dd69d"><path d="M 130.804688 18.75 L 155.914062 18.75 L 155.914062 41.398438 L 130.804688 41.398438 Z M 130.804688 18.75 " clip-rule="nonzero"/></clipPath><clipPath id="c75d5429a0"><path d="M 143.476562 18.75 L 130.804688 18.75 L 143.242188 30.050781 L 130.804688 41.34375 L 143.476562 41.34375 L 155.914062 30.050781 Z M 143.476562 18.75 " clip-rule="nonzero"/></clipPath><clipPath id="97ea448f91"><path d="M 0.804688 0.75 L 25.914062 0.75 L 25.914062 23.398438 L 0.804688 23.398438 Z M 0.804688 0.75 " clip-rule="nonzero"/></clipPath><clipPath id="c53e029806"><path d="M 13.476562 0.75 L 0.804688 0.75 L 13.242188 12.050781 L 0.804688 23.34375 L 13.476562 23.34375 L 25.914062 12.050781 Z M 13.476562 0.75 " clip-rule="nonzero"/></clipPath><clipPath id="a52c1b1a0e"><rect x="0" width="26" y="0" height="24"/></clipPath></defs><g fill="#0f2f82" fill-opacity="1"><g transform="translate(48.486372, 120.320745)"><g><path d="M 69.953125 -30.265625 L 14.6875 -30.265625 C 15.195312 -23.398438 17.835938 -17.851562 22.609375 -13.625 C 27.378906 -9.394531 33.40625 -7.28125 40.6875 -7.28125 C 44.789062 -7.28125 48.554688 -8.007812 51.984375 -9.46875 C 55.421875 -10.9375 58.394531 -13.097656 60.90625 -15.953125 L 65.921875 -10.171875 C 62.992188 -6.648438 59.332031 -3.96875 54.9375 -2.125 C 50.539062 -0.289062 45.707031 0.625 40.4375 0.625 C 33.65625 0.625 27.644531 -0.816406 22.40625 -3.703125 C 17.175781 -6.585938 13.097656 -10.582031 10.171875 -15.6875 C 7.242188 -20.800781 5.78125 -26.582031 5.78125 -33.03125 C 5.78125 -39.476562 7.179688 -45.253906 9.984375 -50.359375 C 12.785156 -55.460938 16.632812 -59.4375 21.53125 -62.28125 C 26.4375 -65.132812 31.941406 -66.5625 38.046875 -66.5625 C 44.160156 -66.5625 49.644531 -65.132812 54.5 -62.28125 C 59.351562 -59.4375 63.160156 -55.484375 65.921875 -50.421875 C 68.691406 -45.359375 70.078125 -39.5625 70.078125 -33.03125 Z M 38.046875 -58.890625 C 31.679688 -58.890625 26.34375 -56.859375 22.03125 -52.796875 C 17.726562 -48.742188 15.28125 -43.453125 14.6875 -36.921875 L 61.53125 -36.921875 C 60.945312 -43.453125 58.5 -48.742188 54.1875 -52.796875 C 49.875 -56.859375 44.492188 -58.890625 38.046875 -58.890625 Z M 38.046875 -58.890625 "/></g></g></g><g fill="#0f2f82" fill-opacity="1"><g transform="translate(125.83536, 120.320745)"><g><path d="M 12.4375 -66.046875 L 21.34375 -66.046875 L 21.34375 0 L 12.4375 0 Z M 12.4375 -66.046875 "/></g></g></g><g fill="#0f2f82" fill-opacity="1"><g transform="translate(161.119621, 120.320745)"><g><path d="M 72.703125 -93.171875 L 72.703125 0 L 64.171875 0 L 64.171875 -13.0625 C 61.492188 -8.625 57.957031 -5.234375 53.5625 -2.890625 C 49.164062 -0.546875 44.203125 0.625 38.671875 0.625 C 32.484375 0.625 26.875 -0.796875 21.84375 -3.640625 C 16.820312 -6.484375 12.890625 -10.457031 10.046875 -15.5625 C 7.203125 -20.675781 5.78125 -26.5 5.78125 -33.03125 C 5.78125 -39.5625 7.203125 -45.378906 10.046875 -50.484375 C 12.890625 -55.585938 16.820312 -59.539062 21.84375 -62.34375 C 26.875 -65.15625 32.484375 -66.5625 38.671875 -66.5625 C 44.035156 -66.5625 48.875 -65.453125 53.1875 -63.234375 C 57.5 -61.015625 61.035156 -57.769531 63.796875 -53.5 L 63.796875 -93.171875 Z M 39.4375 -7.28125 C 44.039062 -7.28125 48.203125 -8.347656 51.921875 -10.484375 C 55.648438 -12.617188 58.582031 -15.65625 60.71875 -19.59375 C 62.851562 -23.53125 63.921875 -28.007812 63.921875 -33.03125 C 63.921875 -38.050781 62.851562 -42.523438 60.71875 -46.453125 C 58.582031 -50.390625 55.648438 -53.425781 51.921875 -55.5625 C 48.203125 -57.695312 44.039062 -58.765625 39.4375 -58.765625 C 34.75 -58.765625 30.539062 -57.695312 26.8125 -55.5625 C 23.082031 -53.425781 20.148438 -50.390625 18.015625 -46.453125 C 15.878906 -42.523438 14.8125 -38.050781 14.8125 -33.03125 C 14.8125 -28.007812 15.878906 -23.53125 18.015625 -19.59375 C 20.148438 -15.65625 23.082031 -12.617188 26.8125 -10.484375 C 30.539062 -8.347656 34.75 -7.28125 39.4375 -7.28125 Z M 39.4375 -7.28125 "/></g></g></g><g fill="#0f2f82" fill-opacity="1"><g transform="translate(247.760524, 120.320745)"><g><path d="M 39.4375 0.625 C 33.070312 0.625 27.332031 -0.816406 22.21875 -3.703125 C 17.113281 -6.585938 13.097656 -10.582031 10.171875 -15.6875 C 7.242188 -20.800781 5.78125 -26.582031 5.78125 -33.03125 C 5.78125 -39.476562 7.242188 -45.253906 10.171875 -50.359375 C 13.097656 -55.460938 17.113281 -59.4375 22.21875 -62.28125 C 27.332031 -65.132812 33.070312 -66.5625 39.4375 -66.5625 C 45.789062 -66.5625 51.519531 -65.132812 56.625 -62.28125 C 61.738281 -59.4375 65.738281 -55.460938 68.625 -50.359375 C 71.507812 -45.253906 72.953125 -39.476562 72.953125 -33.03125 C 72.953125 -26.582031 71.507812 -20.800781 68.625 -15.6875 C 65.738281 -10.582031 61.738281 -6.585938 56.625 -3.703125 C 51.519531 -0.816406 45.789062 0.625 39.4375 0.625 Z M 39.4375 -7.28125 C 44.125 -7.28125 48.328125 -8.347656 52.046875 -10.484375 C 55.773438 -12.617188 58.6875 -15.65625 60.78125 -19.59375 C 62.875 -23.53125 63.921875 -28.007812 63.921875 -33.03125 C 63.921875 -38.050781 62.875 -42.523438 60.78125 -46.453125 C 58.6875 -50.390625 55.773438 -53.425781 52.046875 -55.5625 C 48.328125 -57.695312 44.125 -58.765625 39.4375 -58.765625 C 34.75 -58.765625 30.539062 -57.695312 26.8125 -55.5625 C 23.082031 -53.425781 20.148438 -50.390625 18.015625 -46.453125 C 15.878906 -42.523438 14.8125 -38.050781 14.8125 -33.03125 C 14.8125 -28.007812 15.878906 -23.53125 18.015625 -19.59375 C 20.148438 -15.65625 23.082031 -12.617188 26.8125 -10.484375 C 30.539062 -8.347656 34.75 -7.28125 39.4375 -7.28125 Z M 39.4375 -7.28125 "/></g></g></g><g clip-path="url(#c0174dd69d)"><g clip-path="url(#c75d5429a0)"><g transform="matrix(1, 0, 0, 1, 130, 18)"><g clip-path="url(#a52c1b1a0e)"><g clip-path="url(#97ea448f91)"><g clip-path="url(#c53e029806)"><path fill="#0f2f82" d="M 0.804688 0.75 L 25.914062 0.75 L 25.914062 23.339844 L 0.804688 23.339844 Z M 0.804688 0.75 " fill-opacity="1" fill-rule="nonzero"/></g></g></g></g></g></g></svg>